<svg xmlns="http://www.w3.org/2000/svg" data-name="line copy" viewBox="0 0 64 64"><defs><linearGradient id="a" x1="4" x2="60" y1="32" y2="32" gradientUnits="userSpaceOnUse"><stop offset="0" stop-color="#00c0ff"/><stop offset="1" stop-color="#5558ff"/></linearGradient></defs><path fill="url(#a)" d="M20.404,46.2746a1.00671,1.00671,0,0,0-1.5546.832V49.043A13.90392,13.90392,0,0,1,6.30133,38.18328a13.7839,13.7839,0,0,1,3.70285-6.7847,1,1,0,0,0-1.41954-1.4083c-9.60423,9.49517-3.13079,26.28544,10.26478,27.00439v2.00379a.99991.99991,0,0,0,1.5546.832l8.92037-5.94594a1.007,1.007,0,0,0,0-1.664Zm.44528,10.85581V56.026a.99937.99937,0,0,0-.99994-.99994A13.88814,13.88814,0,0,1,6.13044,43.18689,15.92872,15.92872,0,0,0,19.84936,51.079a.99937.99937,0,0,0,.99994-.99994V48.97464l6.11781,4.07788ZM45.1135,7.0064V5.00164a1.007,1.007,0,0,0-1.5546-.832l-8.92037,5.94691a1.007,1.007,0,0,0,0,1.664l8.92037,5.94587a1.00678,1.00678,0,0,0,1.5546-.83192V14.95808A13.904,13.904,0,0,1,57.66159,25.8178a13.78392,13.78392,0,0,1-3.70285,6.78469.99984.99984,0,1,0,1.41978,1.40818,15.77482,15.77482,0,0,0,4.2838-7.9897A15.93765,15.93765,0,0,0,45.1135,7.0064Zm-.99994,5.91567a.99937.99937,0,0,0-.99994.99994v1.10443l-6.11781-4.07789,6.11781-4.07886V7.9751a.99937.99937,0,0,0,.99994.99994A13.88815,13.88815,0,0,1,57.83248,20.81418,15.92872,15.92872,0,0,0,44.11356,12.92207Zm.36716,8.41259H19.4822a3.00311,3.00311,0,0,0-2.99983,2.99983v15.3321a3.00311,3.00311,0,0,0,2.99983,2.99982H44.48072a3.00311,3.00311,0,0,0,2.99983-2.99982V24.33449A3.00311,3.00311,0,0,0,44.48072,21.33466Zm.99994,18.33193a1.00061,1.00061,0,0,1-.99994.99994H19.4822a1.00062,1.00062,0,0,1-.99995-.99994V24.33449a1.00063,1.00063,0,0,1,.99995-.99995H44.48072a1.00062,1.00062,0,0,1,.99994.99995ZM26.78938,29.10764,23.896,32.00005l2.89338,2.89338a.99983.99983,0,1,1-1.414,1.414L21.775,32.707a1.00548,1.00548,0,0,1,0-1.414l3.60037-3.5994a.99983.99983,0,1,1,1.414,1.414Zm15.39851,2.18542a1.00549,1.00549,0,0,1,0,1.414l-3.60037,3.60037a.99981.99981,0,1,1-1.41392-1.414l2.89332-2.89338-2.89338-2.89241a.99983.99983,0,1,1,1.414-1.414Zm-8.33642-2.65017L32.05079,35.8426a.99945.99945,0,1,1-1.93934-.48435l1.80068-7.19977A.99964.99964,0,0,1,33.85147,28.64289Z"/></svg>